<svg width="30" height="30" viewBox="0 0 30 30" fill="none" xmlns="http://www.w3.org/2000/svg">
<g clip-path="url(#clip0_1_6168)">
<path d="M15 30C6.72875 30 0 23.2712 0 15C0 6.72875 6.72875 0 15 0C23.2712 0 30 6.72875 30 15C30 23.2712 23.2712 30 15 30ZM15 1.25C7.41875 1.25 1.25 7.41875 1.25 15C1.25 22.5812 7.41875 28.75 15 28.75C22.5812 28.75 28.75 22.5812 28.75 15C28.75 7.41875 22.5812 1.25 15 1.25Z" fill="#FCB427"/>
<path d="M21.875 22.5C21.715 22.5 21.555 22.4388 21.4325 22.3175L14.5575 15.4425C14.4412 15.325 14.375 15.1663 14.375 15V5.625C14.375 5.28 14.655 5 15 5C15.345 5 15.625 5.28 15.625 5.625V14.7413L22.3175 21.4338C22.5613 21.6775 22.5613 22.0738 22.3175 22.3175C22.195 22.4388 22.035 22.5 21.875 22.5Z" fill="#FCB427"/>
</g>
<defs>
<clipPath id="clip0_1_6168">
<rect width="30" height="30" fill="white"/>
</clipPath>
</defs>
</svg>
