<svg width="30" height="30" viewBox="0 0 30 30" fill="none" xmlns="http://www.w3.org/2000/svg">
<path d="M15.0988 6.57471C12.9845 6.57471 11.2637 8.29558 11.2637 10.4098C11.2637 12.5241 12.9845 14.245 15.0988 14.245C17.213 14.245 18.9339 12.5241 18.9339 10.4098C18.9339 8.29558 17.213 6.57471 15.0988 6.57471ZM15.0988 13.1492C13.5883 13.1492 12.3594 11.9203 12.3594 10.4098C12.3594 8.89934 13.5883 7.67046 15.0988 7.67046C16.6093 7.67046 17.8382 8.89934 17.8382 10.4098C17.8382 11.9203 16.6093 13.1492 15.0988 13.1492Z" fill="#FCB427"/>
<path d="M22.4302 3.07741C20.4458 1.09301 17.8072 0 15.001 0C12.1942 0 9.55621 1.09301 7.5718 3.07741C3.89939 6.74927 3.44301 13.658 6.58343 17.8437L15.001 30L23.4059 17.8607C26.559 13.658 26.1026 6.74927 22.4302 3.07741ZM22.5173 17.2203L15.001 28.0748L7.47264 17.2033C4.62423 13.4054 5.0324 7.16621 8.34704 3.85211C10.1244 2.0748 12.4873 1.09575 15.001 1.09575C17.5146 1.09575 19.8776 2.0748 21.6555 3.85211C24.9701 7.16621 25.3783 13.4054 22.5173 17.2203Z" fill="#FCB427"/>
</svg>
