<svg width="113" height="112" viewBox="0 0 113 112" fill="none" xmlns="http://www.w3.org/2000/svg">
<circle cx="56.9976" cy="56.0008" r="38.1538" fill="white" fill-opacity="0.5"/>
<path d="M56.998 94.0806C35.942 94.0806 18.918 77.0566 18.918 56.0006C18.918 34.9447 35.942 17.9207 56.998 17.9207C78.054 17.9207 95.078 34.9447 95.078 56.0006C95.078 77.0566 78.054 94.0806 56.998 94.0806ZM56.998 22.4007C38.406 22.4007 23.398 37.4087 23.398 56.0006C23.398 74.5926 38.406 89.6006 56.998 89.6006C75.59 89.6006 90.598 74.5926 90.598 56.0006C90.598 37.4087 75.59 22.4007 56.998 22.4007Z" fill="#C4C4C4"/>
<path d="M45.7979 75.4887V36.5127L79.3979 56.0007L45.7979 75.4887ZM50.2779 44.1287V67.6487L70.4379 55.7767L50.2779 44.1287Z" fill="#C4C4C4"/>
</svg>
