<svg width="70" height="69" viewBox="0 0 70 69" fill="none" xmlns="http://www.w3.org/2000/svg">
<circle cx="49" cy="20" r="26" fill="#FFEFC7"/>
<path d="M35 68.9264C15.7004 68.9264 0 53.4668 0 34.4632C0 15.4596 15.7004 0 35 0C54.2996 0 70 15.4596 70 34.4632C70 53.4668 54.2996 68.9264 35 68.9264ZM35 2.87193C17.3104 2.87193 2.91667 17.0449 2.91667 34.4632C2.91667 51.8815 17.3104 66.0545 35 66.0545C52.6896 66.0545 67.0833 51.8815 67.0833 34.4632C67.0833 17.0449 52.6896 2.87193 35 2.87193Z" fill="#2D2D2D"/>
<path d="M51.042 51.6949C50.6687 51.6949 50.2953 51.5541 50.0095 51.2756L33.9678 35.4799C33.6966 35.21 33.542 34.8452 33.542 34.4633V12.9238C33.542 12.1311 34.1953 11.4878 35.0003 11.4878C35.8053 11.4878 36.4587 12.1311 36.4587 12.9238V33.8688L52.0745 49.2451C52.6432 49.8051 52.6432 50.7155 52.0745 51.2756C51.7887 51.5541 51.4153 51.6949 51.042 51.6949Z" fill="#2D2D2D"/>
</svg>
