<svg width="70" height="70" viewBox="0 0 70 70" fill="none" xmlns="http://www.w3.org/2000/svg">
<circle cx="54" cy="21" r="26" fill="#FFEFC7"/>
<path d="M0.221358 6.4213L4.8898 14.5906C5.04727 14.8666 5.31084 15.0664 5.61906 15.1437L9.97448 16.2325L24.9126 31.1707L26.5632 29.5206L11.3912 14.3491C11.2419 14.1993 11.0547 14.0932 10.8497 14.0418L6.66471 12.9919L2.69001 6.03243L6.09772 2.62471L13.0601 6.60326L14.1105 10.7882C14.1614 10.9937 14.268 11.1814 14.4173 11.3308L29.5892 26.5027L31.2393 24.8521L16.3012 9.91399L15.2123 5.56097C15.135 5.25227 14.9353 4.98822 14.6592 4.83027L6.48948 0.162308C6.03387 -0.0969433 5.46063 -0.0201282 5.08904 0.350025L0.421078 5.01847C0.0456435 5.38766 -0.0359725 5.96185 0.221358 6.4213Z" fill="#2D2D2D"/>
<path d="M48.7425 23.0007L23.0676 48.6761L21.417 47.0255L47.0925 21.3506L48.7425 23.0007Z" fill="#2D2D2D"/>
<path d="M18.5731 49.5846C18.3619 49.2332 17.9826 49.0186 17.5726 49.0186H10.5704C10.1609 49.0186 9.78114 49.2332 9.57038 49.5846L6.06906 55.4197C5.84677 55.7894 5.84677 56.2517 6.06906 56.6218L9.57038 62.4569C9.78114 62.8079 10.1609 63.023 10.5704 63.023H17.5726C17.9826 63.023 18.3619 62.8079 18.5731 62.4569L22.0739 56.6218C22.2962 56.2517 22.2962 55.7894 22.0739 55.4197L18.5731 49.5846ZM16.9125 60.6887H11.231L8.43016 56.0208L11.231 51.3523H16.9125L19.7133 56.0208L16.9125 60.6887Z" fill="#2D2D2D"/>
<path d="M56.0858 28.0115C63.7937 28.0374 70.0638 21.8097 70.0897 14.1018C70.0935 12.9284 69.9495 11.7599 69.6609 10.6225C69.5054 9.99697 68.8722 9.61625 68.2466 9.7718C68.0411 9.82317 67.8539 9.92927 67.7041 10.0786L60.4393 17.3386L54.6753 15.4177L52.753 9.65514L60.0178 2.38892C60.4734 1.93283 60.4729 1.19397 60.0168 0.738357C59.8665 0.588088 59.6774 0.481507 59.4705 0.430617C51.9954 -1.46239 44.4017 3.06249 42.5087 10.5371C42.2211 11.6711 42.0776 12.8367 42.0814 14.0067C42.0843 14.9256 42.1789 15.8416 42.3652 16.7413L16.8064 42.2996C15.9067 42.1138 14.9906 42.0192 14.0722 42.0159C6.33742 42.0159 0.0673828 48.2859 0.0673828 56.0207C0.0673828 63.755 6.33742 70.025 14.0722 70.025C21.8066 70.025 28.0766 63.755 28.0766 56.0207C28.0737 55.1018 27.9786 54.1858 27.7929 53.2861L33.9117 47.1673L36.5877 49.8433C37.0438 50.2989 37.7822 50.2989 38.2383 49.8433L38.8216 49.2595C39.3334 48.7511 40.1606 48.7511 40.6724 49.2595C41.1837 49.7694 41.1846 50.5971 40.6748 51.1084C40.6743 51.1088 40.6733 51.1098 40.6724 51.1108L40.089 51.6941C39.6334 52.1497 39.6334 52.8885 40.089 53.3442L54.0108 67.2659C57.6725 70.9612 63.6362 70.9881 67.3315 67.3264C71.0263 63.6647 71.0532 57.7005 67.3915 54.0057C67.3719 53.9856 67.3517 53.9654 67.3315 53.9452L53.4097 40.0239C52.9541 39.5683 52.2153 39.5683 51.7597 40.0239L51.1763 40.6073C50.6641 41.1162 49.8374 41.1162 49.3251 40.6073C48.8143 40.0974 48.8128 39.2697 49.3227 38.7589C49.3237 38.7579 49.3246 38.7575 49.3251 38.7565L49.9089 38.1727C50.3645 37.7171 50.3645 36.9782 49.9089 36.5226L47.2328 33.8466L53.3517 27.7278C54.2514 27.9136 55.1674 28.0086 56.0858 28.0115ZM60.6712 67.6913C59.8233 67.6898 58.9827 67.5367 58.1891 67.2385L67.3037 58.1235C68.6792 61.7823 66.8284 65.8631 63.1696 67.2385C62.3712 67.5386 61.5248 67.6922 60.6712 67.6913ZM47.4499 37.3594C46.1574 38.901 46.36 41.1987 47.9016 42.4907C49.2564 43.6261 51.2311 43.6251 52.5845 42.4873L65.6814 55.5958C65.8236 55.7384 65.9565 55.8886 66.0852 56.0413L56.1069 66.0196C55.9538 65.8914 55.8035 65.7584 55.6609 65.6158L42.5538 52.5078C43.8463 50.9662 43.6437 48.6685 42.1021 47.3766C40.7472 46.2407 38.7721 46.2421 37.4188 47.3795L35.5517 45.5124L45.5823 35.4967L47.4499 37.3594ZM52.1625 25.6216L25.6876 52.0911C25.3972 52.3811 25.2805 52.8021 25.3794 53.2001C26.9805 59.4879 23.1811 65.8832 16.8928 67.4839C10.605 69.085 4.20964 65.2855 2.60852 58.9973C1.00789 52.7095 4.80736 46.3141 11.0956 44.713C12.9978 44.2291 14.9906 44.2291 16.8928 44.713C17.2908 44.8105 17.7109 44.6938 18.0018 44.4053L44.4704 17.9353C44.7604 17.6453 44.877 17.2243 44.7772 16.8268C43.1871 10.6124 46.9357 4.28577 53.15 2.69522C54.3243 2.39516 55.539 2.27994 56.7488 2.35531L50.5926 8.51396C50.28 8.82602 50.1705 9.28835 50.3103 9.70747L52.644 16.7101C52.7607 17.0582 53.0343 17.3318 53.3829 17.4475L60.3855 19.7818C60.8042 19.9215 61.2665 19.8125 61.579 19.5004L67.7353 13.3442C67.7492 13.5669 67.7564 13.7873 67.7564 14.0067C67.7891 20.4193 62.6175 25.6442 56.2049 25.6773C55.2135 25.6821 54.2254 25.5602 53.2652 25.3144C52.8672 25.215 52.4462 25.3312 52.1562 25.6211H52.1625V25.6216Z" fill="#2D2D2D"/>
<path d="M60.4134 58.6965L58.7629 60.3471L47.0928 48.6769L48.7429 47.0264L60.4134 58.6965Z" fill="#2D2D2D"/>
</svg>
