<svg width="70" height="63" viewBox="0 0 70 63" fill="none" xmlns="http://www.w3.org/2000/svg">
<circle cx="64" cy="22" r="26" fill="#FFEFC7"/>
<path d="M2.33334 21.5802C1.83138 21.5798 1.386 21.2585 1.22733 20.7822L0.0606689 17.2822C0.0207062 17.1633 0.000297546 17.0389 0 16.9135V12.2469C0 11.6026 0.522377 11.0802 1.16667 11.0802H53.4473C55.3774 7.7342 59.6546 6.58635 63.0006 8.51645C65.1675 9.76639 66.5019 12.0786 66.5 14.5802V41.4135H68.8333C69.4776 41.4135 70 41.9359 70 42.5802V56.5802C70 57.2245 69.4776 57.7469 68.8333 57.7469H67.6667V60.0802H68.8333V62.4135H64.1667V60.0802H65.3333V57.7469H60.55C59.9057 60.9034 56.8244 62.94 53.6678 62.2957C50.5113 61.6514 48.4747 58.5701 49.119 55.4135C49.7633 52.257 52.8446 50.2204 56.0012 50.8647C58.2921 51.3324 60.0823 53.1226 60.55 55.4135H63V48.4135H37.8163L35 51.2299V55.4135H37.45C38.0943 52.257 41.1756 50.2204 44.3322 50.8647C47.4887 51.509 49.5253 54.5903 48.881 57.7469C48.2367 60.9034 45.1554 62.94 41.9988 62.2957C39.7079 61.828 37.9177 60.0378 37.45 57.7469H23.3333V60.0802H24.5V62.4135H19.8333V60.0802H21V57.7469H16.2167C15.5756 60.9042 12.4965 62.9438 9.33917 62.3027C7.04361 61.8366 5.24942 60.0424 4.78333 57.7469H1.16667C0.522377 57.7469 0 57.2245 0 56.5802V44.9135C0 44.7649 0.0281448 44.6176 0.0828323 44.4795L4.7495 32.8129C4.92698 32.37 5.35617 32.0799 5.83334 32.0802H19.8333C20.4776 32.0802 21 32.6026 21 33.2469V41.4135H40.8333V34.2549C40.8379 30.4784 43.8982 27.4181 47.6747 27.4135H52.5V25.9074L30.135 18.0802H9.00667L8.106 20.7822C7.94734 21.2585 7.50196 21.5798 7 21.5802H5.83334V23.9135C5.83334 24.5578 5.31096 25.0802 4.66667 25.0802C4.02238 25.0802 3.5 25.6026 3.5 26.2469C3.5 26.8912 4.02238 27.4135 4.66667 27.4135C5.31096 27.4135 5.83334 26.8912 5.83334 26.2469H8.16667C8.16623 28.1799 6.59896 29.7466 4.66594 29.7461C2.73292 29.7457 1.16623 28.1784 1.16667 26.2454C1.16696 24.7624 2.10175 23.4406 3.5 22.9462V21.5801H2.33334V21.5802ZM54.8333 53.0802C52.9003 53.0802 51.3333 54.6472 51.3333 56.5802C51.3333 58.5132 52.9003 60.0802 54.8333 60.0802C56.7664 60.0802 58.3333 58.5132 58.3333 56.5802C58.3333 54.6472 56.7664 53.0802 54.8333 53.0802ZM43.1667 60.0802C45.0997 60.0802 46.6667 58.5132 46.6667 56.5802C46.6667 54.6472 45.0997 53.0802 43.1667 53.0802C41.2336 53.0802 39.6667 54.6472 39.6667 56.5802C39.6667 58.5132 41.2336 60.0802 43.1667 60.0802ZM10.5 60.0802C12.433 60.0802 14 58.5132 14 56.5802C14 54.6472 12.433 53.0802 10.5 53.0802C8.56698 53.0802 7 54.6472 7 56.5802C7 58.5132 8.56698 60.0802 10.5 60.0802ZM18.6667 34.4135H6.62317L2.33334 45.1375V49.5802H4.66667V51.9135H2.33334V55.4135H4.78333C5.42442 52.2562 8.50354 50.2166 11.6608 50.8577C13.9564 51.3238 15.7506 53.118 16.2167 55.4135H18.6667V34.4135ZM64.1667 14.5802C64.1667 12.0029 62.0773 9.91353 59.5 9.91353C56.9227 9.91353 54.8333 12.0029 54.8333 14.5802V41.4135H64.1667V14.5802ZM65.3333 55.4135H67.6667V48.4135H65.3333V55.4135ZM21 55.4135H23.3333V48.4135H21V55.4135ZM21 43.7469V46.0802H24.5C25.1443 46.0802 25.6667 46.6026 25.6667 47.2469V55.4135H32.6667V50.7469C32.6667 50.4374 32.7897 50.1408 33.0085 49.922L36.5085 46.422C36.7272 46.2033 37.0239 46.0802 37.3333 46.0802H67.6667V43.7469H21ZM47.8333 29.7469H47.6747C45.186 29.7495 43.1693 31.7662 43.1667 34.2549V35.5802H47.8333V29.7469ZM50.1667 29.7469V36.7469C50.1667 37.3912 49.6443 37.9135 49 37.9135H43.1667V41.4135H52.5V29.7469H50.1667ZM52.5 23.4364V18.0802H37.198L52.5 23.4364ZM16.3333 15.7469H52.5V13.4135H16.3333V15.7469ZM9.33334 15.7469H14V13.4135H9.33334V15.7469ZM6.15884 19.2469L7 16.7245V13.4135H2.33334V16.7245L3.1745 19.2469H6.15884Z" fill="#2D2D2D"/>
</svg>
