<svg width="58" height="68" viewBox="0 0 58 68" fill="none" xmlns="http://www.w3.org/2000/svg">
<circle cx="42" cy="21" r="26" fill="#FFEFC7"/>
<path d="M39.7761 45.3518L37.0346 44.7645L37.0248 44.7612L30.4491 43.3546C30.4935 43.0325 30.5169 42.7079 30.5191 42.3828V39.3291C32.4927 38.0684 34.1172 36.3313 35.243 34.2779C36.3688 32.2245 36.9597 29.9207 36.9613 27.5789V25.0906H38.4636C38.5893 25.0907 38.7138 25.066 38.8299 25.0179C38.9461 24.9699 39.0516 24.8994 39.1405 24.8105C39.2294 24.7216 39.2999 24.6161 39.3479 24.4999C39.396 24.3838 39.4207 24.2593 39.4206 24.1336V20.8523C39.4207 20.7266 39.396 20.6022 39.3479 20.486C39.2999 20.3699 39.2294 20.2643 39.1405 20.1755C39.0516 20.0866 38.9461 20.0161 38.8299 19.968C38.7138 19.9199 38.5893 19.8952 38.4636 19.8953H37.7729C37.7331 16.6051 36.5935 13.4229 34.5357 10.8554C32.4779 8.28788 29.6201 6.48273 26.4176 5.72742V3.55469C26.4176 3.42899 26.3929 3.30451 26.3449 3.18836C26.2968 3.07222 26.2263 2.96669 26.1374 2.8778C26.0485 2.78892 25.943 2.71843 25.8269 2.67036C25.7107 2.62229 25.5862 2.59758 25.4605 2.59766H20.5387C20.2848 2.59766 20.0414 2.69849 19.8619 2.87796C19.6825 3.05744 19.5816 3.30087 19.5816 3.55469V5.72742C16.3791 6.48273 13.5214 8.28788 11.4635 10.8554C9.40573 13.4229 8.26616 16.6051 8.22633 19.8953H7.53562C7.40992 19.8952 7.28545 19.9199 7.1693 19.968C7.05316 20.0161 6.94762 20.0866 6.85874 20.1755C6.76986 20.2643 6.69937 20.3699 6.6513 20.486C6.60323 20.6022 6.57852 20.7266 6.57859 20.8523V24.1336C6.57852 24.2593 6.60323 24.3838 6.6513 24.4999C6.69937 24.6161 6.76986 24.7216 6.85874 24.8105C6.94762 24.8994 7.05316 24.9699 7.1693 25.0179C7.28545 25.066 7.40992 25.0907 7.53562 25.0906H9.03789V27.5789C9.03947 29.9207 9.6304 32.2245 10.7562 34.2779C11.882 36.3313 13.5066 38.0684 15.4801 39.3291V42.3828C15.4823 42.7079 15.5057 43.0325 15.5501 43.3546L8.97445 44.7612H8.96734L6.22422 45.3485C4.54304 45.7135 3.03673 46.6412 1.95434 47.9784C0.871944 49.3155 0.278276 50.982 0.271484 52.7023V66.4453C0.271484 66.6991 0.372313 66.9426 0.551792 67.122C0.73127 67.3015 0.974695 67.4023 1.22852 67.4023H44.7707C45.0245 67.4023 45.2679 67.3015 45.4474 67.122C45.6269 66.9426 45.7277 66.6991 45.7277 66.4453V52.7023C45.7203 50.9827 45.1265 49.317 44.0444 47.9806C42.9623 46.6441 41.4566 45.7167 39.7761 45.3518ZM35.8588 19.8953H31.3395V14.2898C31.3395 14.036 31.2386 13.7926 31.0591 13.6131C30.8797 13.4336 30.6362 13.3328 30.3824 13.3328C30.1286 13.3328 29.8852 13.4336 29.7057 13.6131C29.5262 13.7926 29.4254 14.036 29.4254 14.2898V19.8953H26.4176V7.68742C29.1019 8.42389 31.4742 10.0127 33.177 12.2146C34.8799 14.4165 35.8211 17.1121 35.8588 19.8953ZM21.4957 4.51172H24.5035V19.8953H21.4957V4.51172ZM19.5816 7.68797V19.8953H16.5738V14.2898C16.5738 14.036 16.473 13.7926 16.2935 13.6131C16.114 13.4336 15.8706 13.3328 15.6168 13.3328C15.363 13.3328 15.1196 13.4336 14.9401 13.6131C14.7606 13.7926 14.6598 14.036 14.6598 14.2898V19.8953H10.1404C10.1781 17.1121 11.1193 14.4165 12.8221 12.2148C14.525 10.013 16.8973 8.42425 19.5816 7.68797ZM8.49266 21.8094H37.5066V23.1766H8.49266V21.8094ZM10.9536 27.5789V25.0906H35.0473V27.5789C35.0473 30.7741 33.778 33.8385 31.5186 36.0979C29.2592 38.3573 26.1948 39.6266 22.9996 39.6266C19.8044 39.6266 16.74 38.3573 14.4806 36.0979C12.2213 33.8385 10.952 30.7741 10.952 27.5789H10.9536ZM22.9996 41.5352C24.9295 41.537 26.8386 41.1365 28.6051 40.3594V42.3828C28.6051 43.8695 28.0145 45.2952 26.9633 46.3465C25.912 47.3977 24.4863 47.9883 22.9996 47.9883C21.5129 47.9883 20.0872 47.3977 19.0359 46.3465C17.9847 45.2952 17.3941 43.8695 17.3941 42.3828V40.3594C19.1606 41.1365 21.0697 41.537 22.9996 41.5352ZM2.18555 52.7023C2.1914 51.4202 2.63449 50.1785 3.44159 49.1822C4.24869 48.186 5.37151 47.4949 6.62453 47.2232L8.21758 46.882V65.4883H2.18555V52.7023ZM10.1316 46.4723L16.0379 45.208C16.5407 46.4414 17.3616 47.5194 18.4168 48.3321C19.472 49.1449 20.7239 49.6633 22.0448 49.8345V65.4883H10.1316V46.4723ZM23.9566 65.4883V49.8345C25.2776 49.6634 26.5295 49.145 27.5847 48.3323C28.64 47.5195 29.4608 46.4414 29.9635 45.208L35.8698 46.4723V65.4883H23.9566ZM43.8137 65.4883H37.7816V46.8825L39.3752 47.2237C40.6281 47.4956 41.7507 48.1866 42.5577 49.1827C43.3647 50.1788 43.8077 51.4204 43.8137 52.7023V65.4883Z" fill="#2D2D2D"/>
<path d="M41.4893 55.813C41.3636 55.8129 41.2391 55.8376 41.1229 55.8857C41.0068 55.9338 40.9013 56.0043 40.8124 56.0931C40.7235 56.182 40.653 56.2875 40.6049 56.4037C40.5569 56.5198 40.5322 56.6443 40.5322 56.77V60.1907C40.5322 60.4445 40.6331 60.688 40.8125 60.8674C40.992 61.0469 41.2354 61.1478 41.4893 61.1478C41.7431 61.1478 41.9865 61.0469 42.166 60.8674C42.3455 60.688 42.4463 60.4445 42.4463 60.1907V56.77C42.4463 56.5162 42.3455 56.2728 42.166 56.0933C41.9865 55.9138 41.7431 55.813 41.4893 55.813Z" fill="#2D2D2D"/>
<path d="M18.5479 53.6372H13.626C13.3722 53.6372 13.1287 53.738 12.9493 53.9175C12.7698 54.097 12.6689 54.3404 12.6689 54.5942C12.6689 54.8481 12.7698 55.0915 12.9493 55.271C13.1287 55.4504 13.3722 55.5513 13.626 55.5513H18.5479C18.8017 55.5513 19.0451 55.4504 19.2246 55.271C19.4041 55.0915 19.5049 54.8481 19.5049 54.5942C19.5049 54.3404 19.4041 54.097 19.2246 53.9175C19.0451 53.738 18.8017 53.6372 18.5479 53.6372Z" fill="#2D2D2D"/>
</svg>
