<svg width="270" height="81" viewBox="0 0 270 81" fill="none" xmlns="http://www.w3.org/2000/svg">
<mask id="mask0_1483_2297" style="mask-type:alpha" maskUnits="userSpaceOnUse" x="0" y="0" width="270" height="81">
<rect width="270" height="81" fill="#FCD571"/>
</mask>
<g mask="url(#mask0_1483_2297)">
<path d="M342.951 -0.0297852V19.0201L324.512 -0.0297852H342.951ZM276.032 88.1566L257.594 69.1067V88.1566H276.032ZM315.411 88.1566L257.594 28.4447V52.8419L291.797 88.1789H315.411V88.1566ZM285.155 -0.0297852L342.972 59.7043V35.3072L308.769 -0.0297852H285.155ZM257.594 -0.0297852V12.18L331.154 88.1789H342.972V75.9691L269.412 -0.0297852H257.594Z" fill="#E7E7E7"/>
<path d="M10.2187 85.2413L-8.85026 85.2413L10.2187 66.8212L10.2187 85.2413ZM-78.0563 18.3903L-58.9872 -0.0297882L-78.0563 -0.029789L-78.0563 18.3903ZM-78.0563 57.7297L-18.2844 -0.0297864L-42.7061 -0.0297875L-78.0786 34.139L-78.0786 57.7297L-78.0563 57.7297ZM10.2187 27.5034L-49.5754 85.2629L-25.1537 85.2629L10.2187 51.0941L10.2187 27.5034ZM10.2188 -0.0297852L-2.00326 -0.0297857L-78.0786 73.4568L-78.0786 85.2629L-65.8566 85.2629L10.2187 11.7763L10.2188 -0.0297852Z" fill="#E7E7E7"/>
</g>
</svg>
