<svg width="61" height="44" viewBox="0 0 61 44" fill="none" xmlns="http://www.w3.org/2000/svg">
<rect y="0.00012207" width="61" height="44" fill="#535554"/>
<g clip-path="url(#clip0_1458_2677)">
<path d="M47.6596 10.0001H25.3708C24.9777 9.99935 24.6173 10.219 24.4376 10.5687C24.2554 10.9231 24.2874 11.35 24.5201 11.6737L32.6858 23.1766C32.6885 23.1806 32.6915 23.1843 32.6942 23.1882C32.9909 23.5888 33.1513 24.0739 33.1523 24.5726V33.9508C33.1505 34.2286 33.2596 34.4953 33.4554 34.6924C33.6512 34.8894 33.9174 35 34.195 35C34.3363 35 34.4759 34.9717 34.6063 34.9177L39.1947 33.168C39.6059 33.0426 39.8788 32.6547 39.8788 32.1875V24.5726C39.8796 24.0741 40.0402 23.5888 40.3366 23.1882C40.3394 23.1843 40.3423 23.1806 40.3451 23.1766L48.5105 11.6732C48.7432 11.3497 48.7752 10.9231 48.593 10.5687C48.4133 10.219 48.0529 9.99935 47.6596 10.0001ZM39.3135 22.4365C38.8574 23.0554 38.6108 23.8037 38.6093 24.5726V32.0333L34.4213 33.63V24.5726C34.4199 23.8037 34.1732 23.0554 33.7169 22.4365L25.7895 11.2692H47.2412L39.3135 22.4365Z" fill="white"/>
</g>
<defs>
<clipPath id="clip0_1458_2677">
<rect width="25" height="25" fill="white" transform="translate(24 10.0001)"/>
</clipPath>
</defs>
</svg>
