<svg width="30" height="30" viewBox="0 0 30 30" fill="none" xmlns="http://www.w3.org/2000/svg">
<path d="M15.0929 6.57446C12.9787 6.57446 11.2578 8.29534 11.2578 10.4096C11.2578 12.5238 12.9787 14.2447 15.0929 14.2447C17.2072 14.2447 18.9281 12.5238 18.9281 10.4096C18.9281 8.29534 17.2072 6.57446 15.0929 6.57446ZM15.0929 13.149C13.5824 13.149 12.3536 11.9201 12.3536 10.4096C12.3536 8.8991 13.5824 7.67021 15.0929 7.67021C16.6034 7.67021 17.8323 8.8991 17.8323 10.4096C17.8323 11.9201 16.6034 13.149 15.0929 13.149Z" fill="#FCB427"/>
<path d="M22.4282 3.07741C20.4438 1.09301 17.8053 0 14.999 0C12.1923 0 9.55425 1.09301 7.56985 3.07741C3.89744 6.74927 3.44106 13.658 6.58148 17.8437L14.999 30L23.404 17.8607C26.557 13.658 26.1006 6.74927 22.4282 3.07741ZM22.5153 17.2203L14.999 28.0748L7.47068 17.2033C4.62228 13.4054 5.03045 7.16621 8.34509 3.85211C10.1224 2.0748 12.4854 1.09575 14.999 1.09575C17.5127 1.09575 19.8757 2.0748 21.6535 3.85211C24.9682 7.16621 25.3763 13.4054 22.5153 17.2203Z" fill="#FCB427"/>
</svg>
