<svg width="1599" height="1082" viewBox="0 0 1599 1082" fill="none" xmlns="http://www.w3.org/2000/svg">
<rect x="-8" width="1607" height="1043" fill="white"/>
<path d="M998.75 1028.7L998.75 1043H939.13L939.13 966H997.32L997.32 980.3H956.84L956.84 997.02H992.59L992.59 1010.88H956.84L956.84 1028.7H998.75ZM1047.14 1044.32C1036.14 1044.32 1027.56 1041.28 1021.4 1035.19C1015.31 1029.1 1012.27 1020.41 1012.27 1009.12L1012.27 966H1030.09L1030.09 1008.46C1030.09 1022.25 1035.81 1029.14 1047.25 1029.14C1052.82 1029.14 1057.08 1027.49 1060.01 1024.19C1062.94 1020.82 1064.41 1015.57 1064.41 1008.46L1064.41 966H1082.01L1082.01 1009.12C1082.01 1020.41 1078.93 1029.1 1072.77 1035.19C1066.68 1041.28 1058.14 1044.32 1047.14 1044.32ZM1148.68 1043L1133.83 1021.55H1132.95H1117.44L1117.44 1043H1099.62L1099.62 966H1132.95C1139.77 966 1145.67 967.137 1150.66 969.41C1155.72 971.683 1159.6 974.91 1162.32 979.09C1165.03 983.27 1166.39 988.22 1166.39 993.94C1166.39 999.66 1164.99 1004.61 1162.21 1008.79C1159.49 1012.9 1155.61 1016.05 1150.55 1018.25L1167.82 1043H1148.68ZM1148.35 993.94C1148.35 989.613 1146.95 986.313 1144.17 984.04C1141.38 981.693 1137.31 980.52 1131.96 980.52H1117.44L1117.44 1007.36H1131.96C1137.31 1007.36 1141.38 1006.19 1144.17 1003.84C1146.95 1001.49 1148.35 998.193 1148.35 993.94ZM1217.8 1044.32C1209.8 1044.32 1202.58 1042.6 1196.13 1039.15C1189.75 1035.7 1184.72 1030.97 1181.06 1024.96C1177.46 1018.87 1175.67 1012.05 1175.67 1004.5C1175.67 996.947 1177.46 990.163 1181.06 984.15C1184.72 978.063 1189.75 973.297 1196.13 969.85C1202.58 966.403 1209.8 964.68 1217.8 964.68C1225.79 964.68 1232.98 966.403 1239.36 969.85C1245.74 973.297 1250.76 978.063 1254.43 984.15C1258.09 990.163 1259.93 996.947 1259.93 1004.5C1259.93 1012.05 1258.09 1018.87 1254.43 1024.96C1250.76 1030.97 1245.74 1035.7 1239.36 1039.15C1232.98 1042.6 1225.79 1044.32 1217.8 1044.32ZM1217.8 1029.14C1222.34 1029.14 1226.45 1028.11 1230.12 1026.06C1233.78 1023.93 1236.64 1021 1238.7 1017.26C1240.82 1013.52 1241.89 1009.27 1241.89 1004.5C1241.89 999.733 1240.82 995.48 1238.7 991.74C1236.64 988 1233.78 985.103 1230.12 983.05C1226.45 980.923 1222.34 979.86 1217.8 979.86C1213.25 979.86 1209.14 980.923 1205.48 983.05C1201.81 985.103 1198.91 988 1196.79 991.74C1194.73 995.48 1193.71 999.733 1193.71 1004.5C1193.71 1009.27 1194.73 1013.52 1196.79 1017.26C1198.91 1021 1201.81 1023.93 1205.48 1026.06C1209.14 1028.11 1213.25 1029.14 1217.8 1029.14ZM1310.17 1044.32C1302.32 1044.32 1295.21 1042.63 1288.83 1039.26C1282.52 1035.81 1277.54 1031.08 1273.87 1025.07C1270.28 1018.98 1268.48 1012.13 1268.48 1004.5C1268.48 996.873 1270.28 990.053 1273.87 984.04C1277.54 977.953 1282.52 973.223 1288.83 969.85C1295.21 966.403 1302.36 964.68 1310.28 964.68C1316.95 964.68 1322.97 965.853 1328.32 968.2C1333.75 970.547 1338.29 973.92 1341.96 978.32L1330.52 988.88C1325.31 982.867 1318.86 979.86 1311.16 979.86C1306.39 979.86 1302.14 980.923 1298.4 983.05C1294.66 985.103 1291.73 988 1289.6 991.74C1287.55 995.48 1286.52 999.733 1286.52 1004.5C1286.52 1009.27 1287.55 1013.52 1289.6 1017.26C1291.73 1021 1294.66 1023.93 1298.4 1026.06C1302.14 1028.11 1306.39 1029.14 1311.16 1029.14C1318.86 1029.14 1325.31 1026.1 1330.52 1020.01L1341.96 1030.57C1338.29 1035.04 1333.75 1038.45 1328.32 1040.8C1322.89 1043.15 1316.84 1044.32 1310.17 1044.32ZM1403.05 1043L1388.2 1021.55H1387.32H1371.81L1371.81 1043H1353.99L1353.99 966H1387.32C1394.14 966 1400.05 967.137 1405.03 969.41C1410.09 971.683 1413.98 974.91 1416.69 979.09C1419.41 983.27 1420.76 988.22 1420.76 993.94C1420.76 999.66 1419.37 1004.61 1416.58 1008.79C1413.87 1012.9 1409.98 1016.05 1404.92 1018.25L1422.19 1043H1403.05ZM1402.72 993.94C1402.72 989.613 1401.33 986.313 1398.54 984.04C1395.76 981.693 1391.69 980.52 1386.33 980.52H1371.81L1371.81 1007.36H1386.33C1391.69 1007.36 1395.76 1006.19 1398.54 1003.84C1401.33 1001.49 1402.72 998.193 1402.72 993.94ZM1485.59 1026.5H1449.84L1443.02 1043H1424.76L1459.08 966H1476.68L1511.11 1043H1492.41L1485.59 1026.5ZM1479.98 1012.97L1467.77 983.49L1455.56 1012.97H1479.98ZM1589.72 966L1589.72 1043H1575.09L1536.7 996.25L1536.7 1043H1519.1L1519.1 966H1533.84L1572.12 1012.75L1572.12 966H1589.72Z" fill="#D3D0D0" fill-opacity="0.2"/>
</svg>
