<svg width="1600" height="43" viewBox="0 0 1600 43" fill="none" xmlns="http://www.w3.org/2000/svg">
<mask id="mask0_1_3755" style="mask-type:alpha" maskUnits="userSpaceOnUse" x="-186" y="0" width="1881" height="43">
<path d="M1694 43L1694 7.24792e-05L-186 0.00014626L-186 43.0001L1694 43Z" fill="black" fill-opacity="0.25"/>
</mask>
<g mask="url(#mask0_1_3755)">
<path fill-rule="evenodd" clip-rule="evenodd" d="M351.331 -400.891V-343.998H439.158L986.354 286.955V288.479L1123.27 446.352H986.109V388.322H898.443L351.247 -242.631V-242.833L214.171 -400.891H351.331ZM-146.455 331.245L-283.615 173.09V331.245H-146.455ZM146.473 331.245L-283.615 -164.491V38.0577L-29.1876 331.43H146.473V331.245ZM-78.5972 -400.891L351.247 94.7488V94.95L605.675 388.322H781.336V388.137L351.491 -107.317V-107.518L97.0637 -400.891H-78.5972ZM-283.615 -400.891V-299.524L263.581 331.43H351.247V388.137H488.407L351.491 230.264V230.063L-195.705 -400.891H-283.615ZM986.193 -285.783V-343.998H849.033L986.109 -185.94V-184.416L1533.31 446.537H1621.22V345.17L1074.02 -285.783H986.193ZM986.354 -49.1022L1416.2 446.352V446.537H1240.54L986.109 153.165V151.641L556.265 -343.998H731.926L986.354 -50.6262V-49.1022ZM1621.06 -127.629V-285.783H1483.9L1621.06 -127.629ZM1621.22 210.138L1191.13 -285.783H1366.79L1621.22 7.58902V210.138Z" fill="#595959"/>
</g>
</svg>
