<svg width="1600" height="48" viewBox="0 0 1600 48" fill="none" xmlns="http://www.w3.org/2000/svg">
<mask id="mask0_1_3749" style="mask-type:alpha" maskUnits="userSpaceOnUse" x="-161" y="0" width="1881" height="48">
<path d="M1719 47.9536L1719 0.000141144L-161 0.000223424L-161 47.9537L1719 47.9536Z" fill="black" fill-opacity="0.25"/>
</mask>
<g mask="url(#mask0_1_3749)">
<path fill-rule="evenodd" clip-rule="evenodd" d="M376.331 -447.073V-383.627H464.158L1011.35 320.012V321.712L1148.27 497.772H1011.11V433.057H923.443L376.247 -270.582V-270.807L239.171 -447.073H376.331ZM-121.455 369.404L-258.615 193.03V369.404H-121.455ZM171.473 369.404L-258.615 -183.44V42.442L-4.18756 369.61H171.473V369.404ZM-53.5972 -447.073L376.247 105.664V105.888L630.675 433.057H806.336V432.85L376.491 -119.68V-119.904L122.064 -447.073H-53.5972ZM-258.615 -447.073V-334.028L288.581 369.61H376.247V432.85H513.407L376.491 256.791V256.566L-170.705 -447.073H-258.615ZM1011.19 -318.705V-383.627H874.033L1011.11 -207.36V-205.661L1558.31 497.978H1646.22V384.934L1099.02 -318.705H1011.19ZM1011.35 -54.7589L1441.2 497.772V497.978H1265.54L1011.11 170.81V169.11L581.265 -383.627H756.926L1011.35 -56.4582V-54.7589ZM1646.06 -142.331V-318.705H1508.9L1646.06 -142.331ZM1646.22 234.346L1216.13 -318.705H1391.79L1646.22 8.46332V234.346Z" fill="#595959"/>
</g>
</svg>
